<svg xmlns="http://www.w3.org/2000/svg" viewBox="781.1 160.5 33.7 30.1" id="svg22" width="33.7" height="30.1"><style id="style2">.st6{fill:#21afe5}</style><g id="Vrstva_2" transform="translate(-15.4 -19.5)"><path class="st6" d="M829.2 204.5h-31.7a1 1 0 0 1-1-1V181c0-.5.4-1 1-1h31.7c.5 0 1 .4 1 1v22.6c0 .5-.5.9-1 .9zm-30.8-1.9h29.8v-20.7h-29.8z" id="path5" fill="#221f20"/><path class="st6" d="M803.1 198.4a3 3 0 0 1-3-3 3 3 0 0 1 3-3 3 3 0 0 1 3 3c0 1.6-1.4 3-3 3zm0-4.2c-.6 0-1.1.5-1.1 1.1 0 .6.5 1.1 1.1 1.1.6 0 1.1-.5 1.1-1.1 0-.6-.5-1.1-1.1-1.1zm13.6 3.5a3 3 0 0 1-3-3 3 3 0 0 1 3-3c1.6 0 3 1.4 3 3 .1 1.6-1.3 3-3 3zm0-4.2c-.6 0-1.1.5-1.1 1.1 0 .6.5 1.1 1.1 1.1.6 0 1.1-.5 1.1-1.1.1-.6-.4-1.1-1.1-1.1zm6.9 1a3 3 0 0 1-3-3c0-1.6 1.4-3 3-3s3 1.4 3 3a3 3 0 0 1-3 3zm0-4.2c-.6 0-1.1.5-1.1 1.1 0 .6.5 1.1 1.1 1.1.6 0 1.1-.5 1.1-1.1 0-.6-.5-1.1-1.1-1.1zm-13.7 1.1a3 3 0 0 1-3-3 3 3 0 0 1 3-3c1.6 0 3 1.4 3 3 0 1.7-1.3 3-3 3zm0-4.1c-.6 0-1.1.5-1.1 1.1 0 .6.5 1.1 1.1 1.1.6 0 1.1-.5 1.1-1.1 0-.6-.5-1.1-1.1-1.1z" id="path7" fill="#221f20"/><path class="st6" d="M804.9 194.4c-.2 0-.5-.1-.7-.3-.4-.4-.4-1 0-1.4l3.2-3.2c.4-.4 1-.4 1.4 0 .4.4.4 1 0 1.4l-3.2 3.2c-.2.2-.4.3-.7.3z" id="path9" fill="#221f20"/><path class="st6" d="M815 194c-.2 0-.5-.1-.6-.3l-3.3-3c-.4-.4-.4-1-.1-1.4.4-.4 1-.4 1.4-.1l3.3 3c.4.4.4 1 .1 1.4-.2.3-.5.4-.8.4z" id="path11" fill="#221f20"/><path class="st6" d="M818.8 194.7c-.4 0-.7-.2-.9-.5-.2-.5 0-1.1.4-1.3l2.5-1.2c.5-.2 1.1 0 1.3.4.2.5 0 1.1-.4 1.3l-2.5 1.2c-.1.1-.3.1-.4.1z" id="path13" fill="#221f20"/><path class="st6" d="M820.9 210.1h-15.2a1 1 0 0 1-1-1c0-.6.4-1 1-1h15.2c.5 0 1 .4 1 1s-.5 1-1 1z" id="path15" fill="#221f20"/><path class="st6" d="M809.5 209.4a1 1 0 0 1-1-1v-4.5c0-.5.4-1 1-1s1 .4 1 1v4.5c0 .5-.5 1-1 1z" id="path17" fill="#221f20"/><path class="st6" d="M817.1 209.4a1 1 0 0 1-1-1v-4.5c0-.5.4-1 1-1s1 .4 1 1v4.5c0 .5-.4 1-1 1z" id="path19" fill="#221f20"/></g></svg>